<?xml version="1.0" encoding="utf-8"?>
<!-- Generator: Adobe Illustrator 19.0.0, SVG Export Plug-In . SVG Version: 6.00 Build 0)  -->
<svg version="1.1" id="Layer_1" xmlns="http://www.w3.org/2000/svg" xmlns:xlink="http://www.w3.org/1999/xlink" x="0px" y="0px"
	 viewBox="0 0 317.6 402.8" enable-background="new 0 0 317.6 402.8" xml:space="preserve">
<g id="XMLID_2_">
	<path id="XMLID_12_" fill="#E67526" d="M173.9,94.4c0,25.7,0,51.5,0,77.2c0,5-0.1,10.1-5,13.4c-0.5,0.3-1,0.8-1.6,1
		c-8.6,3.2-17.4,3.3-25.9,0c-5.7-2.2-7-7.5-7-13c-0.1-15.5,0-31,0-46.5c0-26.4,0-52.7,0-79.1c0-5.3-0.2-5.6-5.2-4.3
		c-16.3,4.2-30.5,12.1-42.4,24.1c-4.2,4.2-8.1,8.8-12.4,12.9c-3.9,3.8-8.4,4.4-13.4,2.1c-7.2-3.3-13-8-16.8-14.8
		c-1.9-3.5-2.4-7.7,0.2-11c5-6.4,10.1-12.7,15.7-18.5c10.6-11,23.3-19.2,37.1-25.6c18.4-8.4,37.7-12.8,58-12.2
		c3.7,0.1,7.5,1.1,10.9,2.4c5.4,2,7.7,6.5,7.7,12.1c0.1,15,0.1,30,0.2,45C174,71.2,174,82.8,173.9,94.4z"/>
	<g id="XMLID_1_">
		<path id="XMLID_13_" fill="#243269" d="M291.2,138.9c-2.5,50.3-25.2,90.2-70.4,116.9c-16.4,9.7-34.3,15.3-53.1,16.9
			c-39.2,3.3-74-7.6-103.8-33.7c-22.2-19.5-36.8-43.6-43.1-72.4c-2.1-9.9-2.9-20.2-3.4-30.3c-0.5-10.3,5.4-15.9,15.7-16.2
			c3.1-0.1,6.2-0.1,9.4,0c9.6,0.3,15.1,5.7,15,15.2c-0.1,16.9,3.6,32.8,11.9,47.5c14.7,26,36.6,42.5,66.1,48.3
			c32,6.3,60.3-2.2,84.2-24c15.9-14.4,25.8-32.6,29.4-54c4.6-27.4-1.7-52.2-18-74.6c-3.6-4.9-7.8-9.4-12.1-13.7
			c-8.2-8.2-8.9-14.1-1.6-23.1c2.6-3.2,5.6-6,8.8-8.6c5.8-4.6,12-4.3,17.7,0.4c13.7,11.5,23.9,25.6,32.1,41.4
			c7.4,14.4,11.7,29.8,14,45.7C290.7,126.2,290.7,131.7,291.2,138.9z"/>
		<path id="XMLID_7_" fill="#243269" d="M82,366.1c6.8,2.7,9.2,6.3,9.3,14.3c0,3.1,0.4,6.3-0.1,9.4c-1.9,10-7,12.5-15.3,12.7
			c-23.2,0.4-46.5,0.2-69.7,0.2c-4.1,0-6.1-2.1-6.1-6.3c0-19.9,0-39.7,0-59.6c0-4.8,2.1-6.8,6.9-6.8c21.6,0,43.2,0.1,64.9,0.1
			c2,0,4,0.3,5.9,0.6c5.9,0.9,9.6,4.6,10.3,10.3c0.7,5.2,0.8,10.7-0.2,15.9C87.2,360.2,84,363.1,82,366.1z M20.8,385.3
			c2.5,0,4.7,0,6.8,0c12.4-0.1,24.7-0.1,37.1-0.3c3.8-0.1,5.1-2.2,5.1-6.3c0-3.7-2.3-5.1-5.5-5.2c-13.6-0.1-27.2-0.1-40.8,0.1
			c-0.9,0-2.4,1.6-2.5,2.6C20.6,378.8,20.8,381.5,20.8,385.3z M42.7,347.1c-4.7,0-9.5-0.1-14.2,0c-8.5,0.1-7.4-1.6-7.6,7.9
			c-0.1,2.8,0.8,3.7,3.6,3.6c8.2-0.2,16.5,0,24.7-0.1c4.2,0,8.5,0.2,12.7-0.2c4.2-0.4,5.5-2.3,5.2-6.2c-0.3-3.4-2.1-5-6.1-5
			C54.9,347.1,48.8,347.1,42.7,347.1z"/>
		<path id="XMLID_6_" fill="#243269" d="M136.3,355.6c16.4,0,32.3,0,48.1,0c2.3,0,2.3-1.4,2.3-3c0-5.4,0-10.7,0-16.1
			c0-4.4,2-6.5,6.3-6.5c3.5-0.1,7,0,10.5-0.1c3.7-0.1,5.5,2,6.3,5.2c0.4,1.5,0.5,3.2,0.5,4.8c0,16.4,0,32.7,0,49.1c0,2-0.3,4-0.4,6
			c-0.4,6-2.1,7.7-8,7.7c-3.1,0-6.2,0-9.4-0.1c-3.6-0.1-5.7-2.2-5.7-5.9c-0.1-5.5-0.1-11,0-16.5c0-2.7-0.6-4-3.8-3.9
			c-14.2,0.2-28.5,0.2-42.7,0c-3.2,0-4.1,1.1-4,4.1c0.2,5.2,0.1,10.5,0,15.7c0,4.2-2.2,6.4-6.4,6.5c-3.6,0.1-7.3,0.1-10.9,0
			c-3.6-0.1-5.8-1.9-5.8-5.4c-0.1-20.6-0.1-41.2,0-61.9c0-3.1,2.2-5.1,5.3-5.3c4-0.2,8-0.3,12-0.1c3.6,0.1,5.8,2.7,5.8,6.5
			C136.4,342.7,136.3,348.9,136.3,355.6z"/>
		<path id="XMLID_5_" fill="#243269" d="M261,348.6c-8.5,0-16.4,0-24.4,0c-5.7,0-8-2.3-7.9-7.9c0-1.5,0-3,0.1-4.5
			c0.2-4,2.4-6.2,6.4-6.2c25.2,0,50.5,0,75.7,0c1.1,0,2.2,0.3,3.2,0.8c2.9,1.6,4.4,8.3,2.8,13.1c-1.1,3.3-3.7,4.8-7.2,4.7
			c-8.1-0.1-16.2,0-24.8,0c0,1.6,0,2.9,0,4.2c0,12.7,0,25.5,0,38.2c0,1.9,0,3.8-0.2,5.6c-0.5,4-2.6,5.9-6.7,5.9
			c-3.2,0.1-6.5,0.1-9.7,0c-5-0.1-7.1-2.3-7.2-7.4c0-14,0-28,0-42C261,351.9,261,350.6,261,348.6z"/>
	</g>
</g>
</svg>
