<?xml version="1.0" encoding="utf-8"?>
<!-- Generator: Adobe Illustrator 19.0.0, SVG Export Plug-In . SVG Version: 6.00 Build 0)  -->
<svg version="1.1" id="Layer_1" xmlns="http://www.w3.org/2000/svg" xmlns:xlink="http://www.w3.org/1999/xlink" x="0px" y="0px"
	 viewBox="0 0 274 274" enable-background="new 0 0 274 274" xml:space="preserve">
<g id="XMLID_1_">
	<path id="XMLID_5_" fill="#253169" d="M274,139.4c-2.5,50.3-25.2,90.2-70.4,116.9c-16.4,9.7-34.3,15.3-53.1,16.9
		c-39.2,3.3-74-7.6-103.8-33.7c-22.2-19.5-36.8-43.6-43.1-72.4c-2.1-9.9-2.9-20.2-3.4-30.3c-0.5-10.3,5.4-15.9,15.7-16.2
		c3.1-0.1,6.2-0.1,9.4,0c9.6,0.3,15.1,5.7,15,15.2c-0.1,16.9,3.6,32.8,11.9,47.5c14.7,26,36.6,42.5,66.1,48.3
		c32,6.3,60.3-2.2,84.2-24c15.9-14.4,25.8-32.6,29.4-54c4.6-27.4-1.7-52.2-18-74.6c-3.6-4.9-7.8-9.4-12.1-13.7
		c-8.2-8.2-8.9-14.1-1.6-23.1c2.6-3.2,5.6-6,8.8-8.6c5.8-4.6,12-4.3,17.7,0.4c13.7,11.5,23.9,25.6,32.1,41.4
		c7.4,14.4,11.7,29.8,14,45.7C273.5,126.7,273.5,132.2,274,139.4z"/>
	<path id="XMLID_4_" fill="#E67525" d="M156.7,94.9c0,25.7,0,51.5,0,77.2c0,5-0.1,10.1-5,13.4c-0.5,0.3-1,0.8-1.6,1
		c-8.6,3.2-17.4,3.3-25.9,0c-5.7-2.2-7-7.5-7-13c-0.1-15.5,0-31,0-46.5c0-26.4,0-52.7,0-79.1c0-5.3-0.2-5.6-5.2-4.3
		c-16.3,4.2-30.5,12.1-42.4,24.1c-4.2,4.2-8.1,8.8-12.4,12.9c-3.9,3.8-8.4,4.4-13.4,2.1c-7.2-3.3-13-8-16.8-14.8
		c-1.9-3.5-2.4-7.7,0.2-11c5-6.4,10.1-12.7,15.7-18.5c10.6-11,23.3-19.2,37.1-25.6c18.4-8.4,37.7-12.8,58-12.2
		c3.7,0.1,7.5,1.1,10.9,2.4c5.4,2,7.7,6.5,7.7,12.1c0.1,15,0.1,30,0.2,45C156.8,71.7,156.7,83.3,156.7,94.9z"/>
</g>
</svg>
