<?xml version="1.0" encoding="UTF-8"?>
<!DOCTYPE svg PUBLIC "-//W3C//DTD SVG 1.0//EN" "http://www.w3.org/TR/2001/REC-SVG-20010904/DTD/svg10.dtd">
<!-- Creator: CorelDRAW X7 -->
<svg xmlns="http://www.w3.org/2000/svg" xml:space="preserve" width="256px" height="66px" version="1.0" style="shape-rendering:geometricPrecision; text-rendering:geometricPrecision; image-rendering:optimizeQuality; fill-rule:evenodd; clip-rule:evenodd" viewBox="0 0 1985760 509614" xmlns:xlink="http://www.w3.org/1999/xlink">
 <defs>
  <style type="text/css">
   <![CDATA[
    .fil0 {fill:#1E3C78}
   ]]>
  </style>
 </defs>
 <g id="Layer_x0020_1">
  <metadata id="CorelCorpID_0Corel-Layer"/>
  <circle class="fil0" cx="731239" cy="254807" r="254810"/>
  <path class="fil0" d="M208883 3907l-208883 0 0 499933 208883 0c137487,0 249976,-112480 249976,-249966l0 0c0,-137487 -112489,-249967 -249976,-249967z"/>
  <path class="fil0" d="M1776877 503840l208893 0 0 -499933 -208893 0c-137477,0 -249967,112480 -249967,249967l0 0c0,137486 112490,249966 249967,249966z"/>
  <polygon class="fil0" points="1001669,503758 1499580,503758 1499580,5856 1381939,5856 1350390,57461 1250620,220641 1150858,57461 1119309,5856 1001669,5856 "/>
 </g>
</svg>