<?xml version="1.0" encoding="utf-8"?>
<!-- Generator: Adobe Illustrator 19.0.0, SVG Export Plug-In . SVG Version: 6.00 Build 0)  -->
<svg version="1.1" id="Layer_1" xmlns="http://www.w3.org/2000/svg" xmlns:xlink="http://www.w3.org/1999/xlink" x="0px" y="0px"
	 viewBox="0 0 172 27" enable-background="new 0 0 172 27" xml:space="preserve">
<g id="XMLID_2_">
	<path id="XMLID_3_" fill="#A7DAF2" d="M8.2,26.3h-5V10.8H0.5V7.2h2.8V5.7c0-3.9,2.1-5.4,5.6-5.4c1.5,0,2.1,0,2.6,0.1v4H10
		c-1.7,0-1.8,0.5-1.8,2.1v0.8h3.3v3.6H8.2V26.3z"/>
	<path id="XMLID_5_" fill="#A7DAF2" d="M27.7,20.7c-1.3,4.6-5.1,6.1-8.4,6.1c-5.4,0-9.5-2.6-9.5-10.4c0-2.3,0.8-9.6,9.1-9.6
		c3.8,0,9,1.8,9,10.5v0.9H14.8c0.1,1.4,0.4,4.7,4.5,4.7c1.4,0,2.8-0.7,3.2-2.1H27.7z M22.7,14.9c-0.3-3.1-2.3-4-3.9-4
		c-2.4,0-3.6,1.5-3.9,4H22.7z"/>
	<path id="XMLID_8_" fill="#A7DAF2" d="M46,26.3H41v-2.4H41c-1.2,2.1-3.4,2.9-5.5,2.9c-5.7,0-8-5-8-10.2c0-6.6,3.7-9.8,7.9-9.8
		c3.2,0,4.7,1.8,5.5,3h0.1V0.6h5V26.3z M36.7,22.7c3.2,0,4.4-2.7,4.4-5.5c0-3-0.9-6.1-4.3-6.1c-3.2,0-4.3,2.8-4.3,5.8
		C32.6,19.2,33.5,22.7,36.7,22.7z"/>
	<path id="XMLID_11_" fill="#A7DAF2" d="M64.1,20.7c-1.3,4.6-5.1,6.1-8.4,6.1c-5.4,0-9.5-2.6-9.5-10.4c0-2.3,0.8-9.6,9.1-9.6
		c3.8,0,9,1.8,9,10.5v0.9H51.3c0.1,1.4,0.4,4.7,4.5,4.7c1.4,0,2.8-0.7,3.2-2.1H64.1z M59.2,14.9c-0.3-3.1-2.3-4-3.9-4
		c-2.4,0-3.6,1.5-3.9,4H59.2z"/>
	<path id="XMLID_14_" fill="#A7DAF2" d="M64.9,7.2h4.8v3.3h0.1c1-1.9,2.2-3.8,5.2-3.8c0.3,0,0.6,0,1,0.1v5.1c-0.4-0.1-1-0.1-1.4-0.1
		c-3.9,0-4.6,2.4-4.6,4.5v9.9h-5V7.2z"/>
	<path id="XMLID_17_" fill="#A7DAF2" d="M90.9,22.6c0,2.3,0.5,2.8,1.1,3v0.8h-5.4c-0.3-0.9-0.4-1.2-0.5-2.3
		c-1.1,1.2-2.8,2.8-6.2,2.8c-2.9,0-5.8-1.6-5.8-5.6c0-3.7,2.4-5.6,5.6-6.1l4.5-0.7C85.1,14.4,86,14,86,13c0-2.1-2-2.2-3.3-2.2
		c-2.5,0-2.9,1.5-3.1,2.7h-4.8c0.6-5.8,4.6-6.7,8.5-6.7c2.7,0,7.6,0.8,7.6,5.5V22.6z M86,17c-0.5,0.4-1.3,0.7-3.4,1
		c-1.9,0.3-3.4,0.8-3.4,2.9c0,1.8,1.4,2.3,2.3,2.3c2.2,0,4.5-1.4,4.5-3.8V17z"/>
	<path id="XMLID_20_" fill="#A7DAF2" d="M97.9,26.3h-5V0.6h5V26.3z"/>
	<path id="XMLID_22_" fill="#A7DAF2" d="M117.2,26.3h-5V14.7c0-1.4-0.1-3.8-3.3-3.8c-2.2,0-3.9,1.5-3.9,4.4v10.9h-5V7.2h4.8V10h0.1
		c0.7-1.1,2.1-3.3,5.7-3.3c3.7,0,6.6,2.2,6.6,6.4V26.3z"/>
	<path id="XMLID_24_" fill="#A7DAF2" d="M134.6,22.6c0,2.3,0.5,2.8,1.1,3v0.8h-5.4c-0.3-0.9-0.4-1.2-0.5-2.3
		c-1.1,1.2-2.8,2.8-6.2,2.8c-2.9,0-5.8-1.6-5.8-5.6c0-3.7,2.4-5.6,5.6-6.1l4.5-0.7c0.8-0.1,1.8-0.4,1.8-1.5c0-2.1-2-2.2-3.3-2.2
		c-2.5,0-2.9,1.5-3.1,2.7h-4.8c0.6-5.8,4.6-6.7,8.5-6.7c2.7,0,7.6,0.8,7.6,5.5V22.6z M129.7,17c-0.5,0.4-1.3,0.7-3.4,1
		c-1.9,0.3-3.4,0.8-3.4,2.9c0,1.8,1.4,2.3,2.3,2.3c2.2,0,4.5-1.4,4.5-3.8V17z"/>
	<path id="XMLID_27_" fill="#ED1C24" d="M134.9,6.8h17.9v5.1h-5.8v14.4h-6.4V11.9h-5.8V6.8z"/>
	<path id="XMLID_29_" fill="#ED1C24" d="M151.6,6.7h6.5l3.4,13l3.6-13h6.5l-6.8,19.6h-6.4L151.6,6.7z"/>
</g>
</svg>
