<?xml version="1.0" encoding="utf-8"?>
<!-- Generator: Adobe Illustrator 19.0.0, SVG Export Plug-In . SVG Version: 6.00 Build 0)  -->
<svg version="1.1"
	 id="svg2" sodipodi:version="0.32" sodipodi:docname="Hrvatska_radiotelevizija.svg" inkscape:version="0.46" inkscape:output_extension="org.inkscape.output.svg.inkscape" xmlns:inkscape="http://www.inkscape.org/namespaces/inkscape" xmlns:sodipodi="http://sodipodi.sourceforge.net/DTD/sodipodi-0.dtd" xmlns:svg="http://www.w3.org/2000/svg" xmlns:rdf="http://www.w3.org/1999/02/22-rdf-syntax-ns#" xmlns:cc="http://creativecommons.org/ns#" xmlns:dc="http://purl.org/dc/elements/1.1/"
	 xmlns="http://www.w3.org/2000/svg" xmlns:xlink="http://www.w3.org/1999/xlink" x="0px" y="0px" viewBox="-1169 586.6 59.6 29.4"
	 style="enable-background:new -1169 586.6 59.6 29.4;" xml:space="preserve">
<style type="text/css">
	.st0{clip-path:url(#SVGID_2_);}
	.st1{fill:#030D49;}
	.st2{fill:#FF0000;}
	.st3{fill:#B2B2B2;}
</style>
<defs>
	
	
		<inkscape:perspective  inkscape:persp3d-origin="372.04724 : 350.78739 : 1" sodipodi:type="inkscape:persp3d" inkscape:vp_x="0 : 526.18109 : 1" inkscape:vp_y="0 : 1000 : 0" inkscape:vp_z="744.09448 : 526.18109 : 1" id="perspective10">
		</inkscape:perspective>
	
		<inkscape:perspective  inkscape:persp3d-origin="372.04724 : 350.78739 : 1" sodipodi:type="inkscape:persp3d" inkscape:vp_x="0 : 526.18109 : 1" inkscape:vp_y="0 : 1000 : 0" inkscape:vp_z="744.09448 : 526.18109 : 1" id="perspective2410">
		</inkscape:perspective>
</defs>
<sodipodi:namedview  inkscape:window-x="0" inkscape:window-y="0" inkscape:pageshadow="2" inkscape:current-layer="g2416" inkscape:pageopacity="0.0" inkscape:window-width="1264" inkscape:window-height="764" inkscape:document-units="px" inkscape:cy="9.8989746" borderopacity="1.0" id="base" pagecolor="#ffffff" bordercolor="#666666" gridtolerance="10000" guidetolerance="10" objecttolerance="10" showgrid="false" inkscape:zoom="7.9195959" inkscape:cx="15.041714">
	<inkscape:grid  type="xygrid" id="grid8197" enabled="true" visible="true"></inkscape:grid>
</sodipodi:namedview>
<g id="layer1" transform="translate(-139.97305,-82.362183)" inkscape:groupmode="layer" inkscape:label="Layer 1">
	
		<g id="g2412" transform="matrix(1.25,0,0,-1.25,31.885898,1113.265)" inkscape:label="HRT-SAT_Zahtjev_za_placanje_kreditnim_karticama">
		<g id="g2414">
			<g>
				<defs>
					<rect id="SVGID_1_" x="-1009.6" y="-574.5" width="743.8" height="1052.5"/>
				</defs>
				<clipPath id="SVGID_2_">
					<use xlink:href="#SVGID_1_"  style="overflow:visible;"/>
				</clipPath>
				<g id="g2416" class="st0">
					<g id="g8199" transform="translate(1.2432954e-2,-5.9960937e-3)">
						<g id="g8231" transform="matrix(0.9628721,0,0,0.9628721,4.0955378,30.183222)">
							<path id="path6234" class="st1" d="M-884.8,313.8h2.4v23.5h-2.4V313.8z"/>
							<path id="path6226" class="st2" d="M-837.1,320.8h-6.9v-6.9h6.9V320.8z"/>
							<path id="path6228" class="st3" d="M-883.2,313.8v23.5h6.9v-8.5h5.8v8.5h6.9v-23.5h-6.9v9.2h-5.8v-9.2H-883.2z"/>
							<path id="path6230" class="st3" d="M-863.9,327.1h0.9c1.1,0,1.9,0.2,2.4,0.6c0.5,0.4,0.8,1,0.8,1.8c0,0.9-0.2,1.6-0.7,2
								c-0.5,0.4-1.3,0.6-2.4,0.6h-1V327.1z M-869.9,313.8v23.5h6.7c2.6,0,4.5-0.1,5.5-0.4c1-0.2,1.9-0.6,2.7-1.2
								c0.8-0.6,1.5-1.5,2-2.5c0.5-1,0.7-2.1,0.7-3.3c0-1.8-0.4-3.3-1.3-4.4c-0.9-1.1-2.2-1.9-3.9-2.3l6.4-9.5h-7.3l-5.4,9.2v-9.2
								H-869.9z"/>
							<path id="path6232" sodipodi:nodetypes="ccccccccc" class="st3" d="M-850.9,327.5v3.9h-5.3v6h17.4v-6h-5.3v-4L-850.9,327.5z"
								/>
							<path id="path6236" class="st1" d="M-870.5,328.9h1.7v8.4h-1.7V328.9z"/>
							<path id="path6238" class="st1" d="M-857.7,331.4h1.7v6h-1.7V331.4z"/>
							<path id="path6224" class="st2" d="M-844,327.7h-6.9v-6.9h6.9V327.7z"/>
						</g>
					</g>
				</g>
			</g>
		</g>
	</g>
</g>
</svg>
