<?xml version="1.0" encoding="utf-8"?>
<!-- Generator: Adobe Illustrator 19.0.0, SVG Export Plug-In . SVG Version: 6.00 Build 0)  -->
<svg version="1.1" id="Layer_1" xmlns="http://www.w3.org/2000/svg" xmlns:xlink="http://www.w3.org/1999/xlink" x="0px" y="0px"
	 viewBox="0 0 1200 1200" style="enable-background:new 0 0 1200 1200;" xml:space="preserve">
<style type="text/css">
	.st0{fill:#B82025;}
</style>
<path class="st0" d="M600,0C268.6,0,0,268.6,0,600s268.6,600,600,600s600-268.6,600-600S931.4,0,600,0 M600,159.7
	c117.5,0,227.9,45.8,311,128.9c83.2,83.2,129,193.8,129,311.4s-45.8,228.2-129,311.4c-83.1,83.1-193.6,128.9-311,128.9
	s-227.9-45.8-311-128.9C205.8,828.2,160,717.7,160,600s45.8-228.2,129-311.4C372.1,205.5,482.5,159.7,600,159.7"/>
<path class="st0" d="M914.8,455.9c-11.6-43-50.8-71.1-93.4-70.3c-0.1,0-0.2,0-0.3,0c-85.4-0.3-460.8,0.2-461,0.2
	c5.6,2.6,37.4,9.4,19,66.8c-10.9,40-93.3,346.2-97,359.8c0,0,128.4-0.2,188.8,0c5.7,0,7.4-2.4,8.8-7.3
	c21.5-79.9,76.8-284.5,83.3-306.8c4.9-16.7,15.6-27.7,33.9-27.9c34.1-0.4,68.1-0.8,102.2,0.1c22.2,0.6,30.2,12.4,24.5,33.9
	c-16.8,62.8-61.5,226.4-70.1,261.6c-7.2,29.7,6.2,46.8,36.6,48.5c2.2,0.1,181.6,0.4,181.8,0.4c-5.6-2.6-37.4-9.4-19-66.8
	c0,0,45.9-169.4,53.2-196.9c6.2-23.1,11.9-46.4,12-70.4C918,480.1,918,467.8,914.8,455.9"/>
</svg>
