<?xml version="1.0" encoding="UTF-8" standalone="no"?>
<!-- Created with Inkscape (http://www.inkscape.org/) -->
<svg xmlns:dc="http://purl.org/dc/elements/1.1/" xmlns:cc="http://creativecommons.org/ns#" xmlns:rdf="http://www.w3.org/1999/02/22-rdf-syntax-ns#" xmlns:svg="http://www.w3.org/2000/svg" xmlns="http://www.w3.org/2000/svg" xmlns:sodipodi="http://sodipodi.sourceforge.net/DTD/sodipodi-0.dtd" xmlns:inkscape="http://www.inkscape.org/namespaces/inkscape" version="1.1" width="1202" height="265" id="svg2985" inkscape:version="0.48.3.1 r9886" sodipodi:docname="rtl-logo.svg">
  <sodipodi:namedview pagecolor="#ffffff" bordercolor="#666666" borderopacity="1" objecttolerance="10" gridtolerance="10" guidetolerance="10" inkscape:pageopacity="0" inkscape:pageshadow="2" inkscape:window-width="1600" inkscape:window-height="838" id="namedview3096" showgrid="false" inkscape:zoom="0.93365842" inkscape:cx="422.35377" inkscape:cy="101.3314" inkscape:window-x="-8" inkscape:window-y="-8" inkscape:window-maximized="1" inkscape:current-layer="svg2985"/>
  <metadata id="metadata2991">
    <rdf:RDF>
      <cc:Work rdf:about="">
        <dc:format>image/svg+xml</dc:format>
        <dc:type rdf:resource="http://purl.org/dc/dcmitype/StillImage"/>
        <dc:title/>
      </cc:Work>
    </rdf:RDF>
  </metadata>
  <defs id="defs2989">
    <inkscape:path-effect effect="spiro" id="path-effect3031"/>
    <inkscape:path-effect effect="spiro" id="path-effect3026"/>
    <inkscape:path-effect effect="spiro" id="path-effect3021"/>
    <inkscape:path-effect effect="spiro" id="path-effect3016"/>
    <inkscape:path-effect effect="spiro" id="path-effect3008"/>
    <inkscape:path-effect effect="spiro" id="path-effect3001"/>
    <inkscape:path-effect effect="spiro" id="path-effect2997"/>
  </defs>
  <path d="m 11.941939,12.78612 378.798501,0.47768 0.47768,239.79426 -380.231531,0.95535 0.95535,-241.22729" id="path3006" style="fill:#e3212c;stroke:#d40000;stroke-width:1px;stroke-linecap:butt;stroke-linejoin:miter;stroke-opacity:1;fill-opacity:1"/>
  <g id="layer2"/>
  <g id="layer6"/>
  <path d="m 411.27682,253.02688 0.59865,-240.6598 376.55476,1.197312 1.19731,240.659798 -378.35072,-1.19731" id="path3019" style="fill:#f9b200;stroke:#ffcc00;stroke-width:1px;stroke-linecap:butt;stroke-linejoin:miter;stroke-opacity:1;fill-opacity:1"/>
  <g id="layer1">
    <path d="M 72.065792,196.88409 71.422871,64.83962 275.1103,65.721384 l 4.40882,1.322646 6.61323,2.645291 c 1.62416,0.867745 3.24081,1.749553 4.8497,2.645291 2.07046,1.152713 4.12808,2.328495 6.17234,3.527055 l 5.73147,4.408819 4.40882,7.054111 3.52705,6.613228 1.76353,7.054115 0.44088,8.37675 -0.44088,9.6994 -3.08617,9.69941 -5.29058,6.17234 -4.40882,7.05411 -7.05411,4.40882 -4.40882,1.76353 -5.73147,1.32264 -12.78557,0.88177 64.36875,45.85172 -96.99401,0.44088 -46.78619,-42.78312 -24.159,-0.11088 0.34922,43.31682 -94.532698,-0.20204" id="path2999" style="fill:#ffffff;stroke:#ffffff;stroke-width:1px;stroke-linecap:butt;stroke-linejoin:miter;stroke-opacity:1"/>
    <path d="m 546.57312,198.54916 -0.59866,-99.37693 -71.24009,0 0,-30.531467 245.44905,-0.598656 -0.59866,31.130123 -70.64143,-0.598656 0,99.376926 -102.37021,0.59866" id="path3014" style="fill:#ffffff;stroke:#ffffff;stroke-width:1px;stroke-linecap:butt;stroke-linejoin:miter;stroke-opacity:1"/>
  </g>
  <g id="layer7"/>
  <path d="m 167.20829,128.03758 -0.15847,-29.75313 46.95396,0.07794 2.28271,1.71203 3.99474,4.56541 2.85338,3.99474 0.57068,5.13609 -1.71203,5.13609 -3.99474,5.70677 -2.85338,2.85338 -4.09779,0.5958 -43.83906,-0.0251" id="path2995" style="fill:#e3212c;stroke:#d40000;stroke-width:1px;stroke-linecap:butt;stroke-linejoin:miter;stroke-opacity:1;fill-opacity:1"/>
  <g id="layer5"/>
  <g id="layer4"/>
  <g id="layer8"/>
  <g id="layer9" style="fill:#00529e;fill-opacity:1">
    <path d="m 804.29638,254.84047 -0.8466,-240.442279 380.13582,0.846628 -1.6932,241.288911 -377.59602,-1.69326" id="path3029" style="fill:#00529e;stroke:#0000aa;stroke-width:1px;stroke-linecap:butt;stroke-linejoin:miter;stroke-opacity:1;fill-opacity:1"/>
  </g>
  <path d="m 871.17993,67.735739 113.44812,-0.846628 0,100.748699 138.84695,-1.69325 -0.8466,34.71173 -251.44847,0 0,-132.920551" id="path3024" style="fill:#ffffff;stroke:#ffffff;stroke-width:1px;stroke-linecap:butt;stroke-linejoin:miter;stroke-opacity:1"/>
  <g id="layer11"/>
  <g id="layer12"/>
</svg>